<svg width="132" height="174" viewBox="0 0 132 174" fill="none" xmlns="http://www.w3.org/2000/svg">
<path d="M14.6533 0.364057C19.5814 -0.100457 23.7282 1.16921 27.0979 4.64825C31.8608 9.56566 32.2284 17.3112 27.9995 22.6613C24.6908 26.8472 20.2463 28.7952 15.0899 28.0283C9.03712 27.1281 5.18483 23.526 3.0852 17.5624C0.670678 10.7044 7.21206 1.50169 13.6861 0.66887C13.9639 0.63313 14.2257 0.475367 14.6533 0.364057Z" fill="#615F5F"/>
<path d="M29.1646 118.188C24.3192 126.273 13.9977 127.902 6.97869 121.362C3.8906 118.485 2.28459 114.59 2.51968 110.229C2.82085 104.643 8.44663 98.7844 14.0579 97.7474C19.1849 96.8 23.592 98.2432 27.0193 101.785C31.2454 106.152 32.3645 112.132 29.1646 118.188Z" fill="#615F5F"/>
<path d="M104.488 5.14134C108.406 0.75705 113.259 -0.634337 118.733 0.747054C125.691 2.50337 130.244 9.58279 128.982 16.6158C127.712 23.69 121.045 28.5637 114.398 28.1699C107.269 27.7475 101.343 22.1825 101.063 14.8479C100.924 11.2138 101.877 7.95761 104.488 5.14134Z" fill="#615F5F"/>
<path d="M124.552 121.722C116.19 128.891 104.566 124.735 101.679 115.618C98.6774 106.139 106.24 96.6285 116.226 97.493C125.836 98.3251 131.866 107.907 128.102 116.601C127.31 118.432 125.814 119.965 124.552 121.722Z" fill="#615F5F"/>
<path d="M97.1736 46.7557C98.0831 49.311 98.9995 51.8639 99.8933 54.4245C100.004 54.7423 99.9957 55.1009 100.067 55.6905C100.063 56.0871 100.035 56.2338 99.9275 56.4579C99.5563 56.8306 99.2634 57.1258 98.9172 57.2944C98.1264 54.735 97.624 52.2016 96.6105 49.887C92.3492 40.1548 84.8855 33.9398 74.6258 30.7804C74.0409 30.3571 73.4954 30.0377 72.8569 29.664C73.1786 29.4808 73.4147 29.3462 73.6509 29.2117C75.9922 29.9776 78.3686 30.6555 80.6599 31.547C81.7859 31.9851 82.097 32.0666 82.4903 30.6904C84.1631 24.8371 86.057 19.0456 87.8609 13.2287C88.3494 11.6534 88.8053 10.0682 89.4678 8.35913C91.8869 15.7108 95.8688 22.104 101.281 27.7546C98.0319 31.0737 94.8446 34.2376 91.6182 37.362C90.8458 38.11 90.7602 38.6258 91.5097 39.5272C93.1427 41.4909 94.5925 43.603 96.1351 45.6411C96.4397 46.0434 96.8253 46.3857 97.1736 46.7557Z" fill="#615F5F"/>
<path d="M58.461 96.421C55.6047 95.5865 52.7484 94.7521 49.8093 93.8934C47.4403 101.542 45.001 109.418 42.5617 117.294C40.1046 109.962 36.3385 103.727 30.8619 98.5055C30.7506 98.3993 30.7247 98.2054 30.7173 97.8354C34.2664 94.1344 37.757 90.6504 41.1688 87.2453C38.9934 84.3454 36.9478 81.6185 34.9022 78.8915C33.9642 76.3489 33.0262 73.8063 32.2486 71.1278C32.7784 70.9919 33.1478 70.992 33.54 71.0979C33.5429 71.3461 33.5229 71.4886 33.5064 71.7608C33.6977 72.1457 33.8856 72.4009 34.1311 72.7611C34.5368 73.7851 34.8568 74.7158 35.2379 75.6214C36.9868 79.7772 39.4531 83.5362 42.6715 86.6515C44.807 88.7186 47.5522 90.1699 50.0575 92.0105C53.0416 93.4621 55.9927 94.7999 58.8446 96.0929C58.8831 96.06 58.672 96.2405 58.461 96.421Z" fill="#615F5F"/>
<path d="M33.5172 70.9922C33.1478 70.9921 32.7784 70.992 32.2705 70.9917C31.9894 70.7203 31.8468 70.4491 31.7254 69.9128C31.5468 67.3988 31.3469 65.1498 31.184 62.7485C31.3758 60.2845 31.5307 57.9727 31.6856 55.661C32.6844 52.7021 33.6832 49.7433 34.6731 46.8109C26.8667 44.477 18.9461 42.109 10.7041 39.6448C11.152 39.3653 11.4365 39.0795 11.7732 38.9938C17.065 37.6468 21.6684 35.0042 25.8993 31.6701C27.4349 30.46 28.911 29.1761 30.588 27.9701C33.7775 31.0148 36.7833 34.0254 39.8188 37.0065C40.3462 37.5244 40.9987 37.9177 41.6293 38.547C41.7719 38.9441 41.8788 39.1627 41.9496 39.4886C40.9639 40.8377 40.0234 42.0865 39.0627 43.32C35.2496 48.216 33.4289 53.943 32.5237 59.8992C31.9646 63.5789 32.4416 67.3583 33.5172 70.9922Z" fill="#615F5F"/>
<path d="M99.9528 70.2854C99.1014 73.0963 98.2499 75.9071 97.3666 78.8231C105.209 81.1871 113.201 83.5964 121.193 86.0057C113.586 88.1405 107.532 92.288 101.791 97.4012C101.4 97.4436 101.237 97.4402 100.974 97.3779C97.5362 93.9885 94.1993 90.658 90.8374 87.2002C90.7117 86.4738 90.6108 85.8746 90.5498 85.1771C90.8889 84.7817 91.1881 84.4847 91.6146 84.1739C92.0319 83.7107 92.3221 83.2613 92.6273 82.7312C92.6829 82.5367 92.763 82.4673 93.006 82.4211C93.2995 82.0619 93.4696 81.7242 93.6493 81.3989C93.6589 81.4113 93.628 81.4044 93.7482 81.3793C94.0255 81.0155 94.1826 80.6768 94.3495 80.3506C94.3592 80.3631 94.3277 80.3575 94.4536 80.3336C94.8505 79.7205 95.1215 79.1312 95.3992 78.4507C95.5109 78.2165 95.6161 78.0734 95.8451 77.9071C96.2637 77.4874 96.6647 77.1306 96.8347 76.6872C97.5509 74.8184 98.163 72.9099 98.903 71.0509C99.0379 70.7121 99.5922 70.5364 99.9528 70.2854Z" fill="#615F5F"/>
<path d="M41.5935 38.3685C40.9988 37.9177 40.3462 37.5244 39.8188 37.0065C36.7834 34.0254 33.7776 31.0148 30.6938 27.9175C31.8534 26.3369 33.0828 24.8546 34.3079 23.3689C37.9693 18.9287 40.6786 14.0008 42.2232 7.96021C42.6553 8.92842 42.9965 9.52742 43.1976 10.1693C45.3434 17.0196 47.4696 23.8759 49.5879 30.7346C49.687 31.0554 49.6601 31.4143 49.6935 31.9245C49.6495 32.1952 49.6715 32.2802 49.7198 32.4126C49.6787 32.4768 49.6161 32.6156 49.4949 32.6467C46.7803 34.5747 44.1869 36.4716 41.5935 38.3685Z" fill="#7B7B7B"/>
<path d="M97.3135 46.7049C96.8251 46.3858 96.4395 46.0435 96.1349 45.6411C94.5923 43.603 93.1425 41.491 91.5095 39.5272C90.76 38.6258 90.8456 38.1101 91.618 37.362C94.8444 34.2376 98.0317 31.0737 101.332 27.8577C105.665 31.6891 110.217 35.1483 115.567 37.433C117.33 38.186 119.191 38.7167 121.48 39.5139C120.314 39.8886 119.564 40.1413 118.807 40.3705C111.924 42.4552 105.039 44.5373 98.1524 46.6109C97.9351 46.6763 97.6872 46.6419 97.3135 46.7049Z" fill="#7B7B7B"/>
<path d="M90.8623 87.3275C94.1992 90.658 97.5362 93.9885 101.02 97.4533C101.255 97.6652 101.344 97.7427 101.432 97.8202C97.5054 102.021 94.0143 106.526 91.688 111.809C90.9035 113.591 90.2827 115.443 89.4517 117.617C86.9387 109.455 84.5402 101.666 82.1479 93.6577C82.8519 92.9333 83.5496 92.4269 84.3612 91.8863C86.1109 90.5987 87.7345 89.3293 89.3905 88.1026C89.8301 87.7769 90.369 87.5823 90.8623 87.3275Z" fill="#7B7B7B"/>
<path d="M34.7605 78.9346C36.9481 81.6185 38.9937 84.3454 41.1691 87.2453C37.7574 90.6505 34.2667 94.1344 30.7058 97.7132C27.8241 95.647 25.0999 93.3617 22.1784 91.3575C18.7902 89.0333 15.079 87.2905 10.9038 86.43C11.0313 86.147 11.0894 85.7376 11.2559 85.6888C18.9207 83.4378 26.5948 81.218 34.269 78.9984C34.3782 78.9668 34.5016 78.9835 34.7605 78.9346Z" fill="#7B7B7B"/>
<path d="M10.396 71.3193C6.6674 70.4623 4.23305 68.451 2.89672 64.9491C1.918 62.3843 2.72437 60.1401 4.06541 58.3024C7.98348 52.9332 14.5383 52.9931 18.2963 58.0587C20.2789 60.7311 20.3834 63.8453 18.8673 66.6825C17.1771 69.8457 14.2787 71.4574 10.396 71.3193Z" fill="#615F5F"/>
<path d="M118.158 70.9116C114.578 69.636 111.551 65.5435 112.009 62.501C112.73 57.7164 115.525 54.7151 120.141 54.3749C124.033 54.0881 127.948 56.238 129.158 61.5134C129.949 64.959 127.329 69.3741 123.87 70.6433C122.024 71.3208 120.196 71.6122 118.158 70.9116Z" fill="#615F5F"/>
<path d="M72.1151 122.754C68.9967 125.971 63.0076 126.264 59.7541 122.655C56.8496 119.433 56.6146 114.28 60.0174 110.964C62.4283 108.616 65.2632 108.007 68.1799 108.755C71.474 109.601 73.6722 111.912 74.3395 115.449C74.87 118.261 74.0175 120.578 72.1151 122.754Z" fill="#615F5F"/>
<path d="M61.2472 1.62714C66.619 -1.53693 72.7438 1.43619 74.1688 6.29272C75.2345 9.92476 73.7604 13.3045 71.2664 15.345C68.7408 17.4113 64.8182 17.6858 61.8319 16.0612C56.8536 13.353 55.9069 6.90874 59.9048 2.93655C60.3174 2.52658 60.736 2.12251 61.2472 1.62714Z" fill="#615F5F"/>
<path d="M31.5591 55.6633C31.5308 57.9727 31.3759 60.2845 31.0345 62.7574C28.1104 62.9319 25.3729 62.9453 22.6354 62.9587C22.7498 59.0319 22.105 55.2472 20.4501 51.6563C20.1312 50.9643 19.7625 50.2947 19.2065 49.2015C23.5429 51.4943 27.4877 53.58 31.5591 55.6633Z" fill="#7B7B7B"/>
<path d="M100.006 56.3804C100.035 56.2337 100.063 56.0871 100.113 55.8303C104.205 53.628 108.276 51.5357 112.787 49.2173C110.265 53.6286 109.24 58.0359 108.98 62.8063C106.126 62.9271 103.45 62.9088 100.748 62.7431C100.483 60.5239 100.244 58.4521 100.006 56.3804Z" fill="#615F5F"/>
<path d="M73.2681 96.7815C74.5103 99.2146 75.729 101.66 77.0032 104.076C77.8197 105.625 78.7182 107.132 79.8538 109.142C75.3277 106.511 70.782 105.847 66.0337 105.262C65.9019 102.471 65.9085 99.8579 66.0713 97.2162C68.5743 97.0522 70.9212 96.9169 73.2681 96.7815Z" fill="#615F5F"/>
<path d="M65.9033 20.2515C70.5732 19.6946 75.2811 19.2855 79.5742 16.8932C77.4727 20.7891 75.3711 24.6849 73.1198 28.7699C70.617 28.7664 68.2641 28.5738 65.9089 28.2279C65.9055 25.4669 65.9044 22.8592 65.9033 20.2515Z" fill="#7B7B7B"/>
<path d="M65.7512 20.2271C65.9047 22.8591 65.9058 25.4668 65.7437 28.2584C63.8062 28.6354 62.0339 28.8496 60.2564 29.0076C59.7823 29.0497 59.2925 28.9198 58.8099 28.8689C56.6903 24.9082 54.5707 20.9475 52.4512 16.9868C52.5304 16.8705 52.6095 16.7541 52.6887 16.6378C56.5853 19.3889 61.1291 19.6536 65.7512 20.2271Z" fill="#615F5F"/>
<path d="M22.6106 63.1207C25.3729 62.9453 28.1104 62.9319 30.9976 62.9097C31.3471 65.1498 31.5469 67.3988 31.7037 69.7973C27.6487 72.0162 23.6367 74.0855 19.2627 76.3415C21.5719 72.0305 22.823 67.8278 22.6106 63.1207Z" fill="#615F5F"/>
<path d="M65.9153 97.2448C65.9086 99.8579 65.902 102.471 65.8822 105.244C61.3059 105.956 56.6552 106.177 52.6916 109.003C52.5955 108.899 52.4994 108.795 52.4033 108.691C54.5136 104.791 56.6239 100.89 58.9142 96.8082C61.3679 96.8328 63.6416 97.0388 65.9153 97.2448Z" fill="#7B7B7B"/>
<path d="M100.774 62.8906C103.45 62.9089 106.125 62.9271 108.963 62.9612C109.259 67.6021 110.237 72.0152 112.833 76.4823C108.406 74.1614 104.393 72.0571 100.233 69.8425C100.057 69.6789 100.027 69.6256 100.019 69.4877C100.025 69.123 100.01 68.843 100.004 68.4393C100.128 67.9312 100.242 67.5466 100.399 67.0264C100.552 65.5573 100.663 64.224 100.774 62.8906Z" fill="#7B7B7B"/>
<path d="M66.0713 97.2162C63.6416 97.0388 61.3679 96.8328 58.9487 96.6898C58.6857 96.7319 58.593 96.6728 58.4932 96.4983C58.6721 96.2405 58.8832 96.06 58.8447 96.0929C55.9928 94.8 53.0417 93.4621 50.1821 92.0317C56.977 95.4839 64.1336 96.7662 71.5494 95.2639C75.3705 94.4898 78.995 92.767 82.6925 91.5927C81.6006 92.3423 80.5815 93.1102 79.4362 93.5722C77.315 94.428 75.1199 95.105 72.7932 95.9129C73.174 96.1366 73.4124 96.2767 73.6509 96.4168C73.5825 96.5177 73.5142 96.6186 73.357 96.7505C70.9212 96.9168 68.5743 97.0522 66.0713 97.2162Z" fill="#615F5F"/>
<path d="M58.7254 28.8983C59.2929 28.9198 59.7827 29.0497 60.2568 29.0076C62.0343 28.8496 63.8066 28.6354 65.7464 28.4117C68.2648 28.5738 70.6177 28.7663 73.117 28.895C73.3686 28.8992 73.4738 28.9674 73.6151 29.1236C73.415 29.3462 73.1788 29.4808 72.8572 29.664C73.4956 30.0377 74.0412 30.3571 74.4879 30.7764C66.4784 28.8918 58.8394 29.7453 51.4673 32.9107C54.1037 31.6989 56.7055 30.601 59.1813 29.5562C59.0715 29.5057 58.7563 29.3608 58.4412 29.2159C58.5076 29.1198 58.574 29.0238 58.7254 28.8983Z" fill="#615F5F"/>
<path d="M73.7914 96.4085C73.4127 96.2767 73.1742 96.1366 72.7935 95.9129C75.1201 95.1051 77.3152 94.4281 79.4365 93.5723C80.5818 93.1102 81.6009 92.3424 82.6955 91.6019C82.7142 91.4913 82.7011 91.4776 82.8347 91.4926C83.3948 91.6452 83.8213 91.7829 84.2479 91.9206C83.5502 92.427 82.8525 92.9333 82.0892 93.538C79.7183 94.4816 77.416 95.3346 75.1049 96.1639C74.7338 96.2971 74.3238 96.3241 73.7914 96.4085Z" fill="#615F5F"/>
<path d="M58.2978 29.2224C58.7561 29.3608 59.0712 29.5057 59.181 29.5562C56.7052 30.601 54.1034 31.6989 51.3854 32.9759C51.0142 33.2564 50.7593 33.3579 50.3934 33.4033C50.0603 33.1033 49.8383 32.8595 49.6162 32.6157C49.6162 32.6157 49.6788 32.4769 49.81 32.3961C50.0829 32.2038 50.2246 32.0923 50.3664 31.9807C52.9625 31.0634 55.5586 30.1462 58.2978 29.2224Z" fill="#615F5F"/>
<path d="M100.356 67.1621C100.242 67.5466 100.128 67.9312 99.938 68.5053C99.9073 68.9873 99.952 69.2798 99.9966 69.5723C100.027 69.6256 100.057 69.679 100.112 69.8204C100.103 69.9697 100.069 70.031 99.9943 70.1889C99.5924 70.5364 99.0381 70.7121 98.9032 71.0509C98.1632 72.9099 97.5512 74.8184 96.8349 76.6873C96.6649 77.1307 96.2639 77.4875 95.8662 77.7797C97.7094 73.9294 98.7029 69.9073 99.4051 65.8037C99.7962 66.2799 100.076 66.721 100.356 67.1621Z" fill="#615F5F"/>
<path d="M50.2678 31.9955C50.2245 32.0922 50.0828 32.2038 49.8509 32.3319C49.6714 32.2802 49.6495 32.1953 49.7342 32.0634C49.9054 32.0257 50.0374 32.0179 50.2678 31.9955Z" fill="#615F5F"/>
<path d="M101.519 97.7858C101.344 97.7427 101.256 97.6651 101.121 97.5122C101.238 97.4401 101.401 97.4435 101.686 97.4505C101.74 97.5533 101.672 97.6524 101.519 97.7858Z" fill="#615F5F"/>
<path d="M99.405 65.8037C99.1818 63.0848 99.0696 60.4008 98.9639 57.569C99.2632 57.1259 99.5561 56.8307 99.9273 56.458C100.244 58.4523 100.483 60.524 100.748 62.7432C100.663 64.224 100.552 65.5574 100.399 67.0264C100.076 66.721 99.7961 66.2799 99.405 65.8037Z" fill="#615F5F"/>
<path d="M33.5063 71.7609C33.6869 71.89 33.8709 72.1488 34.0642 72.5319C33.8856 72.401 33.6977 72.1457 33.5063 71.7609Z" fill="#615F5F"/>
<path d="M50.3934 33.4032C47.7373 35.4077 44.9702 37.3561 42.0944 39.3428C41.8788 39.1627 41.772 38.9441 41.6294 38.547C44.1869 36.4716 46.7803 34.5747 49.4949 32.6467C49.8382 32.8595 50.0603 33.1033 50.3934 33.4032Z" fill="#615F5F"/>
<path d="M82.8345 91.4924C85.235 89.4457 87.7691 87.4139 90.4067 85.3287C90.6111 85.8745 90.712 86.4736 90.8377 87.2001C90.3693 87.5822 89.8304 87.7768 89.3908 88.1024C87.7349 89.3292 86.1112 90.5986 84.3616 91.8862C83.8211 91.7828 83.3946 91.6451 82.8345 91.4924Z" fill="#615F5F"/>
<path d="M94.4541 80.3336C94.6226 79.8033 94.917 79.2491 95.3022 78.6184C95.122 79.1312 94.851 79.7205 94.4541 80.3336Z" fill="#615F5F"/>
<path d="M91.6147 84.1739C91.7977 83.7675 92.1079 83.3472 92.5153 82.8694C92.3223 83.2613 92.0321 83.7107 91.6147 84.1739Z" fill="#615F5F"/>
<path d="M93.0063 82.4211C93.0733 82.1309 93.2636 81.8193 93.547 81.447C93.4699 81.7241 93.2998 82.0619 93.0063 82.4211Z" fill="#615F5F"/>
<path d="M93.7485 81.3792C93.8053 81.0905 93.9823 80.7767 94.2496 80.4004C94.1829 80.6766 94.0258 81.0154 93.7485 81.3792Z" fill="#615F5F"/>
<path d="M100.019 69.4876C99.952 69.2797 99.9074 68.9872 99.9287 68.6288C100.01 68.8429 100.025 69.123 100.019 69.4876Z" fill="#615F5F"/>
<path d="M65.9412 91.8468C65.3155 91.775 64.6897 91.7033 63.8253 91.5202C60.3343 90.7015 57.6157 89.1115 55.4058 86.6425C48.0612 78.4368 51.5009 65.9067 59.9484 63.3872C60.0038 63.3706 60.016 63.2124 60.0493 63.1177C54.7131 63.1352 50.6884 65.7234 48.6972 70.6295C46.5821 75.8407 46.9587 80.9392 49.7549 85.8768C49.7086 85.923 49.6169 86.0162 49.5047 85.9777C43.5442 81.6474 42.1437 75.7265 42.9573 68.9513C43.8811 61.2579 49.4626 53.3597 58.8864 52.4221C59.282 52.3827 59.6656 52.2248 60.4593 52.0153C54.5916 51.1336 49.9529 52.8032 45.8117 56.1702C41.6482 59.5552 39.5179 64.0407 38.5298 69.1791C37.1149 61.7651 39.9352 55.7978 44.9248 50.5744C49.9112 45.3544 56.1015 42.9739 63.4134 43.2021C60.1265 42.2524 56.8883 42.1295 53.6911 42.6806C48.4784 43.5791 44.5093 46.593 41.015 50.315C40.8705 50.1343 40.8089 50.065 40.7821 49.8793C42.3794 47.707 43.6047 45.2221 45.5865 43.6997C48.2893 41.6234 51.5686 40.2807 54.7399 38.6137C59.4682 37.2016 64.1659 36.8435 68.9423 37.0846C63.8732 35.5961 58.8525 35.8062 53.7532 37.5244C53.4409 37.5115 53.2418 37.4917 52.5752 37.4252C54.941 36.4172 56.8817 35.5902 58.8224 34.7633C65.7012 33.0031 72.404 33.4967 78.8173 36.5378C80.5787 37.373 82.1076 38.6872 83.8308 39.9997C84.1809 41.2177 84.4432 42.2175 84.7056 43.2174C85.0287 43.622 85.2893 44.105 85.6873 44.4158C86.6489 45.1666 87.8207 45.704 88.6338 46.5768C89.466 47.4702 89.9719 48.6606 90.3555 49.8449C92.5944 52.2336 94.964 54.5179 97.0291 57.0453C98.5703 58.9315 98.1763 59.8192 95.718 60.9071C95.3649 59.6296 95.1771 58.5181 94.9893 57.4065C93.7431 58.9607 94.1228 60.2088 95.3897 61.2888C96.0945 64.0289 94.5688 66.4025 91.9145 66.8611C90.9711 67.0242 90.0778 67.4706 89.1213 67.8016C88.5916 65.6918 86.8287 64.2219 84.6567 63.212C83.8448 62.8344 82.8274 62.5839 81.9662 62.706C81.2089 62.8134 80.3417 63.3924 79.918 64.0226C79.7233 64.3122 80.3236 65.3944 80.8222 65.8224C82.961 67.6582 85.2788 69.2085 88.3921 69.3066C88.2949 69.6146 88.0306 70.0077 88.1364 70.1839C89.3909 72.2745 87.7546 73.3772 86.6008 74.6018C85.3315 75.9491 83.9814 77.222 82.4202 78.3008C82.5653 77.5469 82.7103 76.793 82.9038 75.7876C82.1609 76.1473 81.6748 76.3826 81.1412 76.641C81.6366 73.0979 81.0039 71.9336 77.7003 70.2838C76.9183 69.8934 76.0942 69.5864 75.3019 69.215C72.7126 68.001 71.9236 66.7023 72.0517 63.9042C66.2882 60.3292 65.1727 56.3168 68.8325 51.6861C68.9476 51.4258 68.9327 51.3363 68.9179 51.2467C68.8257 51.3191 68.7336 51.3915 68.6414 51.4639C66.0052 52.9202 65.1924 55.2559 65.4919 58.0561C65.8433 61.3418 67.6948 63.4385 71.0088 64.3982C70.2484 67.6307 71.3769 69.7604 74.7536 70.592C75.1351 70.6859 75.4972 71.3019 75.658 71.7497C76.4058 73.8315 76.0954 75.8438 75.0927 77.7827C74.7473 78.4505 74.4281 79.1315 73.9523 79.9881C72.5176 83.995 74.5967 87.2852 78.7274 87.98C79.2572 88.0691 79.7712 88.2501 80.2924 88.3886C78.8526 88.9434 77.4129 89.4982 75.7465 90.0209C73.4752 89.6968 71.4305 89.4047 69.2866 89.0418C62.6462 85.3752 60.8667 78.9705 64.7875 72.8176C64.6832 72.6945 64.5147 72.6574 64.2329 72.6593C59.9906 75.5456 58.5598 79.5154 59.9721 84.3281C60.1513 84.8418 60.326 85.2448 60.5193 85.7596C60.7679 86.2551 60.9979 86.6386 61.2586 87.1278C61.5196 87.515 61.7499 87.7966 62.0247 88.1813C62.623 88.787 63.1767 89.2895 63.793 89.8808C64.1612 90.1595 64.4668 90.3495 64.7796 90.525C64.7869 90.5105 64.7561 90.5211 64.8216 90.6094C65.2104 90.8648 65.5337 91.0319 65.8878 91.3598C65.9262 91.6292 65.9337 91.738 65.9412 91.8468ZM71.8223 49.6855C71.9106 49.7934 71.9989 49.9014 72.0872 50.0094C72.0692 49.7572 72.0513 49.5051 71.9499 48.9975C71.7123 48.0492 71.3535 47.1118 71.2642 46.15C71.1097 44.4886 71.9142 43.0883 73.4162 42.5495C74.1134 42.2994 75.1879 43.0854 76.0963 43.3874C76.1715 43.4124 76.2842 43.3272 76.4465 43.2693C75.8205 42.0155 75.224 40.3957 73.6255 40.6492C72.4952 40.8285 71.1602 41.8315 70.5706 42.8404C69.1707 45.2355 70.1146 47.4792 71.8223 49.6855ZM84.3075 49.1899C84.902 50.2167 85.4965 51.2434 86.3275 52.6787C87.1163 51.8745 87.6176 51.3635 88.1141 50.8574C86.7881 50.0357 85.7103 49.3592 84.6149 48.7118C84.5522 48.6747 84.3457 48.8756 84.3075 49.1899Z" fill="#615F5F"/>
<path d="M54.6012 38.6235C51.5691 40.2807 48.2897 41.6234 45.587 43.6997C43.6052 45.2221 42.3798 47.707 40.7057 49.9512C40.5386 50.3517 40.483 50.5641 40.4275 50.7765C40.6511 50.6598 40.8748 50.5431 41.0984 50.4265C44.5098 46.593 48.4788 43.5791 53.6916 42.6806C56.8887 42.1295 60.127 42.2524 63.4139 43.2021C56.102 42.9739 49.9117 45.3544 44.9253 50.5744C39.9356 55.7978 37.1154 61.7651 38.5303 69.1791C39.5184 64.0407 41.6487 59.5552 45.8121 56.1702C49.9534 52.8032 54.5921 51.1336 60.4598 52.0153C59.6661 52.2248 59.2825 52.3827 58.8868 52.4221C49.463 53.3597 43.8815 61.2579 42.9577 68.9513C42.1442 75.7265 43.5447 81.6474 49.5485 86.0529C49.7989 86.1486 49.8938 86.1306 49.9887 86.1125C49.9263 86.0186 49.864 85.9246 49.8017 85.8307C46.9591 80.9392 46.5826 75.8407 48.6976 70.6295C50.6889 65.7234 54.7135 63.1352 60.0498 63.1177C60.0165 63.2124 60.0043 63.3706 59.9489 63.3872C51.5014 65.9067 48.0617 78.4368 55.4063 86.6425C57.6161 89.1115 60.3348 90.7016 63.6688 91.5099C63.0147 91.649 62.2565 91.8215 61.5465 91.7055C47.0834 89.3417 36.8858 77.8201 36.3993 63.3363C35.9562 50.1462 46.0801 37.0812 58.7325 34.6974C56.8822 35.5902 54.9415 36.4172 52.5757 37.4252C53.2423 37.4917 53.4413 37.5115 53.8216 37.6153C54.2023 38.0074 54.4018 38.3154 54.6012 38.6235Z" fill="#7B7B7B"/>
<path d="M64.7236 72.9036C60.867 78.9705 62.6465 85.3752 69.3213 89.157C69.993 89.7822 70.5313 90.2213 71.4527 90.973C70.3913 91.0686 69.773 91.0496 69.1987 91.1976C68.6499 91.3389 68.1469 91.654 67.6238 91.8927C67.1361 91.9116 66.6484 91.9305 66.0511 91.8981C65.934 91.7381 65.9265 91.6293 65.8573 91.2429C65.4493 90.8172 65.1028 90.6692 64.7564 90.5211C64.7564 90.5211 64.7872 90.5105 64.7598 90.4052C64.3985 90.1306 64.0646 89.9613 63.7308 89.7921C63.177 89.2895 62.6233 88.787 62.0216 88.057C61.7251 87.5604 61.4767 87.2913 61.2283 87.0222C60.9983 86.6387 60.7683 86.2551 60.5988 85.6888C60.4289 85.0765 60.1985 84.6469 59.968 84.2174C58.5601 79.5154 59.991 75.5456 64.3247 72.7338C64.5943 72.814 64.6589 72.8588 64.7236 72.9036Z" fill="#7B7B7B"/>
<path d="M80.414 88.3752C79.7715 88.2501 79.2576 88.069 78.7278 87.9799C74.5971 87.2851 72.6491 83.8642 74.0583 79.9753C76.1845 84.4374 79.2357 85.8068 83.7506 83.3008C86.2428 81.9175 88.3086 79.7831 90.7384 77.9908C90.964 78.0379 91.0178 78.0814 91.0715 78.1249C88.8511 81.9049 85.7692 84.8618 82.1247 87.2822C81.5911 87.6365 81.0648 88.0017 80.414 88.3752Z" fill="#7B7B7B"/>
<path d="M67.7803 91.9053C68.1471 91.654 68.6501 91.3389 69.1989 91.1975C69.7732 91.0496 70.3914 91.0686 71.4528 90.973C70.5314 90.2213 69.9932 89.7822 69.4206 89.2279C71.431 89.4048 73.4757 89.6968 75.6211 90.0544C73.1267 90.7193 70.5316 91.3186 67.7803 91.9053Z" fill="#7B7B7B"/>
<path d="M84.78 43.1344C84.4436 42.2176 84.1812 41.2178 83.915 40.0826C85.523 41.3782 87.1347 42.8091 88.7132 44.4351C88.6328 44.6958 88.5855 44.7615 88.5383 44.8271C87.5759 44.1355 86.6287 43.4209 85.6337 42.7787C85.4936 42.6883 85.1198 42.9517 84.78 43.1344Z" fill="#7B7B7B"/>
<path d="M89.4214 45.6191C89.164 45.4068 88.9066 45.1945 88.5937 44.9046C88.5854 44.7613 88.6327 44.6957 88.7624 44.5408C89.0783 44.7133 89.3116 44.9751 89.5329 45.3792C89.5208 45.5214 89.4214 45.6191 89.4214 45.6191Z" fill="#7B7B7B"/>
<path d="M91.5956 76.9442C91.5547 77.149 91.5138 77.3537 91.3332 77.5726C91.1508 77.5448 91.1081 77.5029 91.0654 77.461C91.1691 77.2997 91.2728 77.1385 91.476 76.9501C91.5756 76.923 91.5956 76.9442 91.5956 76.9442Z" fill="#7B7B7B"/>
<path d="M91.2574 77.6497C91.2949 77.8198 91.2488 77.9181 91.1271 78.0662C91.0172 78.0815 90.9634 78.038 90.8335 77.924C90.7902 77.7427 90.847 77.6454 90.9965 77.5114C91.108 77.503 91.1507 77.5449 91.2574 77.6497Z" fill="#7B7B7B"/>
<path d="M91.5659 76.9124C91.6131 76.8263 91.6703 76.7508 91.7274 76.6753C91.7329 76.7606 91.7384 76.8458 91.6699 76.9377C91.5959 76.9443 91.5759 76.923 91.5659 76.9124Z" fill="#7B7B7B"/>
<path d="M89.5744 45.4768C89.6968 45.5425 89.7655 45.6529 89.8149 45.8518C89.7954 45.9403 89.8077 45.9251 89.8077 45.9251C89.7051 45.8753 89.6024 45.8255 89.4606 45.6975C89.4214 45.6193 89.5208 45.5215 89.5744 45.4768Z" fill="#7B7B7B"/>
<path d="M89.7886 45.9474C89.8429 45.994 89.9038 46.0334 89.9648 46.0728C89.9275 46.0604 89.8902 46.048 89.8302 45.9803C89.8076 45.925 89.7953 45.9402 89.7886 45.9474Z" fill="#7B7B7B"/>
<path d="M54.7401 38.6137C54.4015 38.3155 54.202 38.0074 53.9346 37.6084C58.8526 35.8062 63.8734 35.5961 68.9425 37.0846C64.1661 36.8435 59.4684 37.2016 54.7401 38.6137Z" fill="#7B7B7B"/>
<path d="M71.799 49.4616C70.1147 47.4792 69.1708 45.2356 70.5707 42.8404C71.1604 41.8316 72.4954 40.8285 73.6256 40.6493C75.2242 40.3957 75.8207 42.0156 76.4466 43.2693C76.2843 43.3273 76.1716 43.4125 76.0964 43.3875C75.1881 43.0855 74.1135 42.2994 73.4163 42.5495C71.9144 43.0884 71.1098 44.4886 71.2643 46.1501C71.3537 47.1119 71.7125 48.0492 71.9322 49.1764C71.9144 49.3553 71.799 49.4616 71.799 49.4616Z" fill="#A3A3A3"/>
<path d="M84.2568 49.0778C84.3457 48.8756 84.5522 48.6747 84.6149 48.7117C85.7103 49.3591 86.7881 50.0357 88.1141 50.8573C87.6176 51.3634 87.1163 51.8745 86.3275 52.6786C85.4965 51.2434 84.902 50.2166 84.2568 49.0778Z" fill="#A3A3A3"/>
<path d="M95.4653 61.2145C94.1229 60.2088 93.7432 58.9607 94.9894 57.4065C95.1772 58.5181 95.365 59.6296 95.6208 60.8648C95.6394 61.039 95.5901 61.0895 95.4653 61.2145Z" fill="#A3A3A3"/>
<path d="M59.9722 84.3281C60.1982 84.6469 60.4286 85.0765 60.5799 85.5769C60.326 85.2448 60.1513 84.8418 59.9722 84.3281Z" fill="#7B7B7B"/>
<path d="M61.2588 87.1278C61.4765 87.2913 61.7249 87.5604 61.9769 87.9538C61.7501 87.7965 61.5198 87.515 61.2588 87.1278Z" fill="#7B7B7B"/>
<path d="M63.7935 89.8809C64.0647 89.9613 64.3986 90.1306 64.7526 90.4196C64.4672 90.3495 64.1617 90.1596 63.7935 89.8809Z" fill="#7B7B7B"/>
<path d="M64.8218 90.6094C65.1027 90.6692 65.4491 90.8172 65.8263 91.0822C65.5338 91.0319 65.2106 90.8648 64.8218 90.6094Z" fill="#7B7B7B"/>
<path d="M71.9741 49.3042C72.0515 49.5052 72.0695 49.7573 72.0875 50.0094C71.9992 49.9015 71.9109 49.7935 71.8109 49.5736C71.7992 49.4616 71.9145 49.3553 71.9741 49.3042Z" fill="#A3A3A3"/>
<path d="M64.438 72.6948C64.515 72.6574 64.6835 72.6945 64.7878 72.8176C64.6589 72.8588 64.5942 72.814 64.438 72.6948Z" fill="#7B7B7B"/>
<path d="M68.6899 51.5129C68.7337 51.3915 68.8259 51.3191 68.9181 51.2467C68.9329 51.3362 68.9477 51.4258 68.8996 51.5869C68.8366 51.6584 68.7383 51.5619 68.6899 51.5129Z" fill="#A3A3A3"/>
<path d="M41.0152 50.3151C40.8745 50.5432 40.6509 50.6599 40.4272 50.7765C40.4828 50.5642 40.5383 50.3518 40.6707 50.0676C40.8091 50.0651 40.8707 50.1344 41.0152 50.3151Z" fill="#615F5F"/>
<path d="M49.755 85.8768C49.8636 85.9246 49.926 86.0186 49.9883 86.1126C49.8934 86.1306 49.7985 86.1486 49.6602 86.0914C49.6169 86.0162 49.7087 85.923 49.755 85.8768Z" fill="#615F5F"/>
<path d="M102.463 168.271C104.854 168.271 107.165 168.267 109.476 168.272C110.692 168.275 111.005 168.59 111.008 169.779C111.009 170.549 111.015 171.32 111.006 172.09C110.997 172.891 110.695 173.208 109.902 173.209C104.017 173.214 98.133 173.206 92.2486 173.22C91.5545 173.221 91.2976 172.841 91.1902 172.269C91.1516 172.063 91.1774 171.845 91.1774 171.633C91.177 162.548 91.1769 153.463 91.1773 144.378C91.1773 142.949 91.3598 142.767 92.7826 142.767C98.3983 142.767 104.014 142.767 109.63 142.768C110.782 142.768 111.005 142.985 111.008 144.099C111.01 144.816 111.01 145.533 111.008 146.25C111.004 147.361 110.657 147.704 109.502 147.706C106.654 147.711 103.805 147.708 100.957 147.708C99.6679 147.708 98.3785 147.708 97.0353 147.708C97.0353 150.186 97.0353 152.698 97.0353 155.313C97.343 155.328 97.6521 155.357 97.9612 155.358C101.186 155.361 104.41 155.358 107.634 155.36C108.592 155.361 109.054 155.804 109.071 156.747C109.083 157.438 109.089 158.129 109.069 158.819C109.037 159.892 108.612 160.298 107.53 160.299C104.387 160.303 101.243 160.301 98.0993 160.301C97.7786 160.301 97.458 160.301 97.0595 160.301C97.0595 162.959 97.0595 165.564 97.0595 168.271C98.8522 168.271 100.617 168.271 102.463 168.271Z" fill="#7B7B7B"/>
<path d="M0.61485 154.003C0.600695 152.311 0.344327 150.628 0.673161 149.065C1.40416 145.592 3.7588 143.445 7.20362 142.601C11.2021 141.622 15.0403 142.061 18.5517 144.34C19.0831 144.684 19.5758 145.101 20.0358 145.536C20.5677 146.04 20.6664 146.671 20.1377 147.212C19.3579 148.011 18.55 148.799 17.6538 149.458C17.4163 149.633 16.6733 149.464 16.3983 149.207C14.7647 147.678 12.81 147.002 10.6263 147.093C8.17185 147.196 6.44179 148.113 6.09189 150.94C5.94718 152.11 6.30693 153.406 7.66807 153.97C9.10462 154.564 10.6256 155.007 12.1496 155.337C14.8311 155.916 17.4875 156.508 19.4924 158.543C20.6062 159.674 21.1505 161.083 21.3776 162.647C21.6607 164.595 21.5557 166.473 20.7913 168.315C19.8531 170.576 18.2105 172.188 15.9429 172.981C11.3184 174.598 6.84685 174.029 2.66389 171.521C1.80929 171.008 1.09492 170.253 0.360545 169.563C-0.150473 169.084 -0.100236 168.536 0.397186 168.042C1.06006 167.383 1.71954 166.72 2.39221 166.071C3.07619 165.411 3.38215 165.415 4.0769 166.085C5.40498 167.366 6.91784 168.381 8.77324 168.63C10.0731 168.803 11.4395 168.86 12.7275 168.661C14.4644 168.392 15.6404 166.937 15.7211 165.385C15.8404 163.09 15.2708 162.106 13.1028 161.452C11.2757 160.901 9.37068 160.609 7.51864 160.132C5.75076 159.676 4.08561 159.003 2.70688 157.734C1.60446 156.719 0.943064 155.501 0.61485 154.003Z" fill="#7B7B7B"/>
<path d="M45.5495 152.969C45.5495 152.066 45.5424 151.242 45.5517 150.419C45.5607 149.624 45.8678 149.312 46.6618 149.305C47.7632 149.295 48.8649 149.299 49.9664 149.304C50.9265 149.308 51.1911 149.574 51.1914 150.543C51.1933 157.13 51.1924 163.718 51.1924 170.305C51.1924 170.942 51.1959 171.58 51.1905 172.217C51.1851 172.861 50.8426 173.201 50.2004 173.207C48.884 173.22 47.5674 173.205 46.2509 173.214C45.5313 173.218 45.2133 172.722 44.9628 172.19C43.7684 169.652 42.5951 167.105 41.413 164.562C40.6345 162.887 39.8538 161.213 38.939 159.549C38.939 159.794 38.939 160.039 38.939 160.284C38.939 164.108 38.9404 167.933 38.9382 171.758C38.9375 172.969 38.6936 173.211 37.4975 173.212C36.4497 173.213 35.4018 173.202 34.3541 173.215C33.6078 173.223 33.2918 172.871 33.2925 172.144C33.2991 164.892 33.2944 157.641 33.2994 150.389C33.2999 149.607 33.6209 149.31 34.438 149.305C35.7813 149.297 37.125 149.317 38.468 149.296C39.1136 149.286 39.4952 149.549 39.7677 150.133C41.6255 154.115 43.5082 158.085 45.3843 162.057C45.4032 162.097 45.4418 162.128 45.5495 162.257C45.5495 159.124 45.5495 156.086 45.5495 152.969Z" fill="#7B7B7B"/>
<path d="M120.521 173.212C118.748 173.212 117.055 173.192 115.362 173.22C114.594 173.233 114.31 172.826 114.239 172.166C114.217 171.956 114.233 171.741 114.233 171.529C114.233 164.675 114.233 157.821 114.233 150.968C114.233 149.448 114.384 149.302 115.942 149.302C118.629 149.302 121.317 149.26 124.002 149.318C125.645 149.354 127.196 149.777 128.63 150.656C130.378 151.727 131.291 153.305 131.621 155.222C131.84 156.489 131.922 157.787 131.954 159.073C132.007 161.171 132.025 163.272 131.95 165.368C131.892 166.986 131.448 168.523 130.575 169.932C129.385 171.853 127.531 172.727 125.411 173.019C123.83 173.236 122.206 173.158 120.521 173.212ZM120.037 162.134C120.037 164.163 120.037 166.192 120.037 168.267C120.973 168.267 121.757 168.336 122.526 168.254C124.884 168.005 125.832 167.279 125.965 165.09C126.12 162.551 126.077 159.992 125.976 157.447C125.907 155.703 125.064 154.382 122.76 154.402C121.884 154.41 121.007 154.403 120.037 154.403C120.037 156.889 120.037 159.432 120.037 162.134Z" fill="#7B7B7B"/>
<path d="M65.1129 148.925C67.8688 149.176 70 150.387 71.5922 152.523C72.1383 153.256 72.0306 153.815 71.2971 154.341C70.5629 154.868 69.8301 155.397 69.0781 155.897C68.5009 156.282 67.9316 156.315 67.4418 155.724C66.3686 154.427 65.014 153.82 63.2919 153.91C61.7405 153.991 60.515 154.963 60.4041 156.536C60.2721 158.409 60.2446 160.291 60.2331 162.169C60.2256 163.383 60.2817 164.602 60.392 165.811C60.5483 167.524 61.6527 168.508 63.2026 168.604C65.4732 168.745 66.3887 167.529 66.6614 165.889C66.7423 165.402 66.7836 164.91 66.8594 164.286C66.0481 164.286 65.3328 164.287 64.6174 164.285C63.4038 164.282 63.1262 164.001 63.1241 162.778C63.1228 162.034 63.1135 161.29 63.1272 160.547C63.1424 159.719 63.4744 159.356 64.282 159.351C66.6192 159.335 68.9566 159.357 71.2937 159.338C72.0582 159.332 72.437 159.807 72.4406 160.406C72.4573 163.2 72.7485 166.026 71.7528 168.738C70.7421 171.491 68.6266 172.976 65.825 173.49C63.374 173.94 60.917 173.859 58.6174 172.73C56.2211 171.555 54.8044 169.556 54.6263 166.992C54.3822 163.48 54.2947 159.937 54.4664 156.422C54.6737 152.18 57.4675 149.455 61.6138 148.995C62.7469 148.869 63.9008 148.925 65.1129 148.925Z" fill="#7B7B7B"/>
<path d="M25.9042 149.302C26.9206 149.302 27.8601 149.294 28.7993 149.305C29.6891 149.315 29.9873 149.599 30.066 150.483C30.0801 150.641 30.0714 150.802 30.0714 150.961C30.0715 157.859 30.072 164.758 30.0711 171.657C30.0709 173.017 29.8712 173.212 28.4932 173.212C27.4465 173.212 26.3967 173.163 25.354 173.227C24.4895 173.28 24.2107 172.822 24.1168 172.114C24.0891 171.905 24.1064 171.69 24.1064 171.478C24.106 164.658 24.1057 157.839 24.1064 151.02C24.1065 149.552 24.3554 149.305 25.9042 149.302Z" fill="#7B7B7B"/>
<path d="M83.8389 152.209C85.8487 153.148 87.1596 154.547 87.6711 156.696C88.4075 159.789 86.3152 163.228 83.1607 163.967C79.6 164.8 76.0818 162.749 75.4288 159.05C74.7654 155.292 77.5442 151.954 81.2737 151.872C82.1064 151.853 82.9446 152.074 83.8389 152.209Z" fill="#615F5F"/>
</svg>
